<svg xmlns="http://www.w3.org/2000/svg" viewBox="0 0 660 593" role="img" aria-label="Smooth yellow three-arm boomerang logo">
  <path fill="#FFD400" fill-rule="evenodd" d="
    M 327 0
    C 349 1 369 8 384 23
    C 398 37 405 55 401 78
    L 382 220
    C 379 242 383 256 396 273
    L 419 298
    C 432 312 439 329 444 350
    C 451 378 466 395 491 406
    L 624 464
    C 648 475 662 500 659 527
    C 657 554 640 579 616 590
    C 594 600 568 595 548 580
    L 413 478
    C 401 469 386 467 370 471
    L 337 479
    C 321 482 305 480 288 475
    C 275 471 262 471 250 478
    L 111 572
    C 90 587 63 590 40 578
    C 18 566 4 543 1 517
    C -2 491 10 467 32 453
    C 40 448 49 444 59 440
    L 179 391
    C 202 381 215 365 220 341
    C 224 323 232 308 244 294
    L 272 261
    C 282 249 285 234 282 214
    L 266 73
    C 263 48 272 27 292 13
    C 302 6 314 1 327 0
    Z

    M 330 323
    C 355 323 375 344 375 369
    C 375 394 355 414 330 414
    C 305 414 285 394 285 369
    C 285 344 305 323 330 323
    Z"/>
</svg>
